<?xml version="1.0" encoding="iso-8859-1"?>
<!-- Generator: Adobe Illustrator 19.0.0, SVG Export Plug-In . SVG Version: 6.00 Build 0)  -->
<svg version="1.1" id="Layer_1" xmlns="http://www.w3.org/2000/svg" xmlns:xlink="http://www.w3.org/1999/xlink" x="0px" y="0px"
	 viewBox="0 0 512 512" style="enable-background:new 0 0 512 512;" xml:space="preserve">
<g>
	<polygon style="fill:#8C6644;" points="379.843,414.719 379.843,415.631 379.843,501.843 379.843,502.756 409.47,502.756 
		409.47,501.843 409.47,415.631 409.47,414.719 	"/>
	<polygon style="fill:#8C6644;" points="97.636,415.631 97.636,501.843 97.636,502.756 127.263,502.756 127.263,501.843 
		127.263,415.631 127.263,414.719 97.636,414.719 	"/>
	<rect x="235.132" y="428.194" style="fill:#8C6644;" width="36.853" height="75.212"/>
</g>
<g>
	<path style="fill:#36CC6B;" d="M472.959,420.019l-36.166-59.945h19.247c0,0,0.015,0,0.021,0c2.977,0,5.389-2.412,5.389-5.389
		c0-1.18-0.378-2.272-1.023-3.16l-39.482-65.443h15.677h0.012c2.939-0.006,5.4-2.409,5.4-5.389c0-1.18-0.38-2.272-1.023-3.16
		l-35.794-59.326l-4.019-6.783c-0.967-1.633-2.721-2.635-4.618-2.642c0,0-0.013,0-0.018,0c-1.89,0-3.642,0.991-4.617,2.61
		L351.9,277.911c-1.002,1.665-1.03,3.74-0.074,5.432c0.956,1.691,2.75,2.738,4.693,2.738h15.59l-33.347,55.392
		c-0.001,0.002-0.002,0.004-0.003,0.006l-3.346,5.561l-0.001,0.001l-2.929,4.865c-1.002,1.664-1.029,3.74-0.073,5.43
		c0.956,1.691,2.749,2.738,4.692,2.738h19.167l-20.443,33.959c-1.03,1.712-1.029,3.853,0.003,5.564l-0.489,25.99
		c0.975,1.617,2.726,2.605,4.615,2.605h128.393c1.945,0,3.738-1.048,4.693-2.74C473.993,423.76,473.963,421.684,472.959,420.019z"/>
	<path style="fill:#36CC6B;" d="M170.015,360.074c2.977,0,5.389-2.412,5.389-5.389c0-1.181-0.379-2.272-1.023-3.161l-2.713-4.496
		l0,0l-3.332-5.523l0,0l-0.466-0.771l-2.593-4.299l0,0l-30.379-50.354h15.677c0,0,0.014,0,0.023,0c2.976,0,5.389-2.412,5.389-5.389
		c0-1.18-0.38-2.272-1.023-3.16l-35.794-59.326l-4.019-6.783c-0.967-1.633-2.721-2.635-4.618-2.642
		c-1.943,0.008-3.657,0.985-4.636,2.61l-40.045,66.522c-1.002,1.665-1.03,3.74-0.074,5.432c0.956,1.691,2.75,2.738,4.693,2.738
		h15.587l-39.623,65.823c-1.002,1.665-1.03,3.74-0.074,5.432c0.957,1.691,2.749,2.738,4.692,2.738h19.168l-36.088,59.949
		c-1.002,1.665-1.032,3.74-0.075,5.432c0.957,1.691,2.75,2.738,4.693,2.738H162.84c1.89,0,3.642-0.991,4.617-2.611l3.784-25.985
		c1.03-1.712,1.03-3.852-0.002-5.563l-20.488-33.96h19.246C170.001,360.074,170.009,360.074,170.015,360.074z"/>
</g>
<g>
	<path style="fill:#B8E5F4;" d="M185.251,89.824h-39.728h-11.857h-10.465h-11.857h-23.56c-9.33,0-16.893,7.564-16.893,16.893
		c0,2.477,0.545,4.823,1.504,6.942h-7.692H24.977c-9.33,0-16.893,7.564-16.893,16.893c0,9.328,7.563,16.893,16.893,16.893h39.727
		h11.857h10.466h11.857h23.56c9.33,0,16.893-7.565,16.893-16.893c0-2.477-0.548-4.823-1.505-6.942h7.693h39.728
		c9.331,0,16.894-7.565,16.894-16.893C202.145,97.388,194.583,89.824,185.251,89.824z"/>
	<circle style="fill:#B8E5F4;" cx="247.679" cy="106.712" r="16.892"/>
</g>
<g>
	<path style="fill:#FFA233;" d="M375.748,98.607c5.416,5.416,12.899,8.768,21.167,8.768c16.533,0,29.933-13.403,29.933-29.933
		c0-16.533-13.4-29.933-29.933-29.933c-16.531,0-29.934,13.4-29.934,29.933C366.98,85.707,370.33,93.19,375.748,98.607"/>
	<path style="fill:#FFA233;" d="M465.76,85.526h-19.457c-4.465,0-8.084-3.618-8.084-8.084s3.62-8.084,8.084-8.084h19.457
		c4.465,0,8.084,3.618,8.084,8.084C473.845,81.906,470.224,85.526,465.76,85.526z"/>
	<path style="fill:#FFA233;" d="M347.524,85.526h-19.457c-4.466,0-8.084-3.618-8.084-8.084s3.618-8.084,8.084-8.084h19.457
		c4.465,0,8.084,3.618,8.084,8.084C355.608,81.906,351.989,85.526,347.524,85.526z"/>
	<path style="fill:#FFA233;" d="M431.838,50.601c-2.068,0-4.137-0.789-5.716-2.367c-3.157-3.157-3.158-8.276,0-11.432l13.756-13.758
		c3.158-3.158,8.276-3.157,11.433-0.001c3.157,3.157,3.158,8.276,0,11.433l-13.756,13.758
		C435.977,49.812,433.908,50.601,431.838,50.601z"/>
	<path style="fill:#FFA233;" d="M348.233,134.208c-2.07,0-4.139-0.789-5.717-2.367c-3.157-3.158-3.157-8.276,0-11.433l13.758-13.758
		c3.157-3.156,8.276-3.156,11.433,0c3.158,3.158,3.158,8.276,0,11.433l-13.758,13.758
		C352.37,133.417,350.302,134.208,348.233,134.208z"/>
	<path style="fill:#FFA233;" d="M396.913,36.135h-0.001c-4.465,0-8.083-3.62-8.083-8.084V8.595c0-4.465,3.621-8.084,8.084-8.084
		h0.001c4.465,0,8.083,3.62,8.083,8.084v19.457C404.997,32.517,401.377,36.135,396.913,36.135z"/>
	<path style="fill:#FFA233;" d="M396.913,154.373c-4.466,0-8.084-3.618-8.084-8.084V126.83c0-4.466,3.618-8.084,8.084-8.084
		c4.465,0,8.084,3.618,8.084,8.084v19.458C404.997,150.753,401.378,154.373,396.913,154.373z"/>
	<path style="fill:#FFA233;" d="M361.992,50.602c-2.07,0-4.139-0.789-5.717-2.367l-13.758-13.758c-3.157-3.158-3.157-8.276,0-11.433
		c3.157-3.156,8.276-3.156,11.432,0l13.758,13.758c3.158,3.158,3.158,8.276,0,11.433C366.129,49.813,364.06,50.602,361.992,50.602z"
		/>
	<path style="fill:#FFA233;" d="M445.596,134.208c-2.07,0-4.139-0.789-5.718-2.368l-13.756-13.758
		c-3.158-3.157-3.157-8.276,0-11.432c3.158-3.156,8.276-3.157,11.434,0.001l13.756,13.758c3.158,3.157,3.157,8.276,0,11.432
		C449.732,133.417,447.664,134.208,445.596,134.208z"/>
</g>
<g>
	<path style="fill:#8C6644;" d="M439.6,511.489H8.084c-4.466,0-8.084-3.618-8.084-8.084s3.618-8.084,8.084-8.084H439.6
		c4.466,0,8.084,3.618,8.084,8.084S444.066,511.489,439.6,511.489z"/>
	<path style="fill:#8C6644;" d="M503.916,511.489h-38.376c-4.465,0-8.084-3.618-8.084-8.084s3.62-8.084,8.084-8.084h38.376
		c4.465,0,8.084,3.618,8.084,8.084S508.38,511.489,503.916,511.489z"/>
</g>
<g>
	<path style="opacity:0.1;fill:#231F20;enable-background:new    ;" d="M54.535,425.455c-0.956-1.691-0.926-3.766,0.075-5.432
		l25.653-42.613h80.943l-10.404-17.246H90.646l0.055-0.089H71.53c-1.943,0-3.735-1.047-4.692-2.738
		c-0.956-1.691-0.927-3.766,0.074-5.431l29.31-48.69h49.013l-10.337-17.134h15.677c0,0,0.014,0,0.023,0
		c0.375,0,0.742-0.039,1.096-0.112H89.912c-1.526-0.3-2.872-1.241-3.655-2.626c-0.956-1.691-0.927-3.766,0.074-5.432l34.393-57.132
		l-1.553-2.575l-4.019-6.783c-0.967-1.633-2.721-2.635-4.618-2.642c-1.943,0.008-3.657,0.985-4.636,2.61l-40.045,66.522
		c-1.002,1.665-1.03,3.74-0.074,5.432c0.863,1.526,2.407,2.519,4.127,2.7c0.186,0.023,0.374,0.038,0.565,0.038h15.587
		l-10.313,17.134l0,0l-29.31,48.69c-1.002,1.665-1.03,3.74-0.074,5.431c0.957,1.691,2.749,2.738,4.692,2.738h19.168l-0.055,0.089
		l0,0l-9.826,16.324L34.13,420.023c-1.002,1.665-1.032,3.74-0.075,5.432c0.957,1.691,2.75,2.738,4.693,2.738h20.48
		C57.285,428.193,55.491,427.146,54.535,425.455z"/>
	<path style="opacity:0.1;fill:#231F20;enable-background:new    ;" d="M356.3,399.855l0.005-0.258
		c-1.033-1.711-1.034-3.852-0.003-5.564l10.007-16.623h80.943l-10.404-17.246h-60.157l0.055-0.089H357.58
		c-1.943,0-3.736-1.047-4.692-2.738c-0.956-1.69-0.928-3.766,0.073-5.43l2.022-3.359l4.256-7.072c0-0.001,0-0.001,0.001-0.002
		l0.724-1.203l1.922-3.194v0.001l20.385-33.862h49.012l-10.337-17.134h15.677h0.012c0.369-0.001,0.731-0.04,1.08-0.112h-61.756
		c-1.526-0.3-2.872-1.241-3.655-2.626c-0.956-1.691-0.927-3.766,0.074-5.432l34.392-57.132l-1.553-2.575l-4.019-6.783
		c-0.967-1.633-2.721-2.635-4.618-2.642c0,0-0.013,0-0.018,0c-1.89,0-3.642,0.991-4.617,2.61L351.9,277.911
		c-1.002,1.665-1.03,3.74-0.074,5.432c0.863,1.526,2.407,2.519,4.127,2.7c0.186,0.023,0.374,0.038,0.565,0.038h15.59l-29.485,48.975
		l-0.784,1.302l-3.08,5.113c-0.001,0.002-0.002,0.005-0.003,0.008l-3.347,5.561l-2.929,4.865c-1.002,1.664-1.029,3.74-0.073,5.43
		c0.956,1.691,2.749,2.738,4.692,2.738h19.167l-0.055,0.089l0,0l-9.778,16.243l-10.611,17.626c-1.03,1.712-1.029,3.854,0.003,5.564
		l-0.489,25.99c0.975,1.617,2.726,2.605,4.614,2.605h20.48h3.42c1.943,0,3.737-1.048,4.692-2.74
		c0.956-1.692,0.926-3.768-0.078-5.434L356.3,399.855z"/>
</g>
<path style="fill:#B0E046;" d="M348.145,420.019l-45.366-75.2h25.693c0.007-0.001,0.013-0.001,0.022,0
	c2.977,0,5.389-2.412,5.389-5.389c0-1.18-0.379-2.272-1.023-3.16l-49.478-82.014h21.324c0.006-0.001,0.013-0.001,0.022,0
	c2.977,0,5.389-2.412,5.389-5.389c0-1.18-0.379-2.272-1.023-3.16l-44.969-74.536l-5.946-10.032
	c-0.968-1.632-2.722-2.634-4.619-2.641c-0.006,0-0.012,0-0.018,0c-1.89,0-3.642,0.991-4.618,2.61l-51.156,84.98
	c-1.002,1.665-1.032,3.74-0.074,5.432c0.956,1.691,2.749,2.738,4.692,2.738h21.215l-49.598,82.393
	c-1.002,1.665-1.03,3.74-0.074,5.432c0.957,1.691,2.749,2.738,4.692,2.738h25.596l-45.272,75.205
	c-1.002,1.665-1.032,3.74-0.075,5.432c0.957,1.691,2.75,2.738,4.693,2.738h179.971c1.945,0,3.737-1.048,4.692-2.74
	C349.179,423.76,349.15,421.684,348.145,420.019z"/>
<g>
	<path style="opacity:0.1;fill:#231F20;enable-background:new    ;" d="M202.385,254.256h20.48c-1.943,0-3.736-1.047-4.692-2.738
		c-0.957-1.691-0.927-3.766,0.074-5.432l45.49-75.567l-5.56-9.381c-0.968-1.632-2.722-2.634-4.619-2.641c-0.006,0-0.012,0-0.018,0
		c-1.89,0-3.642,0.991-4.618,2.61l-51.156,84.98c-1.002,1.665-1.032,3.74-0.074,5.432
		C198.65,253.209,200.442,254.256,202.385,254.256z"/>
	<path style="opacity:0.1;fill:#231F20;enable-background:new    ;" d="M214.311,362.065h98.872l-10.404-17.246h-78.084h-20.48
		l-10.383,17.246l0,0l-34.888,57.958c-1.002,1.665-1.032,3.74-0.075,5.432c0.957,1.691,2.75,2.738,4.693,2.738h20.48
		c-1.943,0-3.736-1.047-4.693-2.738c-0.956-1.691-0.926-3.766,0.075-5.432L214.311,362.065z"/>
	<path style="opacity:0.1;fill:#231F20;enable-background:new    ;" d="M178.619,344.819h20.48c-1.943,0-3.735-1.047-4.692-2.738
		c-0.956-1.691-0.927-3.766,0.074-5.431l39.217-65.147h60.086l-10.404-17.246H244.08H223.6l-49.598,82.393
		c-1.002,1.665-1.03,3.74-0.074,5.431C174.884,343.773,176.676,344.819,178.619,344.819z"/>
</g>
<g>
</g>
<g>
</g>
<g>
</g>
<g>
</g>
<g>
</g>
<g>
</g>
<g>
</g>
<g>
</g>
<g>
</g>
<g>
</g>
<g>
</g>
<g>
</g>
<g>
</g>
<g>
</g>
<g>
</g>
</svg>
