<svg height="512pt" viewBox="0 -73 512.00004 512" width="512pt" xmlns="http://www.w3.org/2000/svg"><path d="m366.933594 145.066406h-8.535156c-4.710938 0-8.53125-3.820312-8.53125-8.53125 0-4.714844 3.820312-8.535156 8.53125-8.535156h5.378906l57.332031-49.144531c3.695313-2.925781 9.0625-2.308594 11.992187 1.382812 2.773438 3.5 2.382813 8.542969-.898437 11.570313l-59.730469 51.203125c-1.542968 1.320312-3.507812 2.050781-5.539062 2.054687zm0 0" fill="#b9b9b9"/><path d="m443.734375 85.332031h34.132813v17.066407c0 9.425781-7.640626 17.066406-17.066407 17.066406s-17.066406-7.640625-17.066406-17.066406zm0 0" fill="#fbb540"/><path d="m477.867188 93.867188h-102.402344c-4.710938 0-8.53125-3.820313-8.53125-8.535157 0-4.710937 3.820312-8.53125 8.53125-8.53125h102.402344c4.710937 0 8.53125 3.820313 8.53125 8.53125 0 4.714844-3.820313 8.535157-8.53125 8.535157zm0 0" fill="#cdcdcd"/><path d="m375.464844 307.199219h-366.929688v-75.835938c0-62.808593 10.125-125.207031 29.984375-184.796875 7.574219-22.71875 28.839844-38.039062 52.785157-38.03125h207.949218c42.089844.003906 76.207032 34.121094 76.210938 76.210938zm0 0" fill="#e4e4e2"/><path d="m8.535156 256h366.929688v51.199219h-366.929688zm0 0" fill="#c7463b"/><path d="m8.535156 281.601562h366.929688v25.597657h-366.929688zm0 0" fill="#b94137"/><path d="m324.265625 85.332031h51.199219v51.203125h-51.199219zm0 0" fill="#b3e4e8"/><path d="m59.734375 85.332031h85.332031v68.269531h-85.332031zm0 0" fill="#b3e4e8"/><path d="m10.238281 187.734375c-.425781 5.6875-.769531 11.375-1.03125 17.066406h366.257813v-17.066406zm0 0" fill="#c7463b"/><path d="m8.535156 307.199219 42.664063-76.800781h110.933593l34.132813 76.800781zm0 0" fill="#787d82"/><path d="m204.800781 256h85.332031v51.199219h-85.332031zm0 0" fill="#cdcdcd"/><path d="m204.800781 281.601562h85.332031v25.597657h-85.332031zm0 0" fill="#b9b9b9"/><path d="m59.734375 119.464844h85.332031v34.136718h-85.332031zm0 0" fill="#a8d6da"/><path d="m93.867188 102.398438h17.066406v34.136718h-17.066406zm0 0" fill="#8aced8"/><path d="m119.464844 8.535156h34.136718v17.066406c0 9.425782-7.640624 17.066407-17.066406 17.066407-9.425781 0-17.066406-7.640625-17.066406-17.066407v-17.066406zm0 0" fill="#c7463b"/><path d="m153.601562 8.535156h34.132813v17.066406c0 9.425782-7.640625 17.066407-17.066406 17.066407s-17.066407-7.640625-17.066407-17.066407zm0 0" fill="#fbb540"/><path d="m187.734375 8.535156h34.132813v17.066406c0 9.425782-7.640626 17.066407-17.066407 17.066407s-17.066406-7.640625-17.066406-17.066407zm0 0" fill="#c7463b"/><path d="m221.867188 8.535156h34.132812v17.066406c0 9.425782-7.640625 17.066407-17.066406 17.066407-9.425782 0-17.066406-7.640625-17.066406-17.066407zm0 0" fill="#fbb540"/><path d="m256 8.535156h34.132812v17.066406c0 9.425782-7.640624 17.066407-17.066406 17.066407-9.425781 0-17.066406-7.640625-17.066406-17.066407zm0 0" fill="#c7463b"/><path d="m290.132812 256h-85.332031v-128c0-23.5625 19.101563-42.667969 42.664063-42.667969 23.566406 0 42.667968 19.105469 42.667968 42.667969zm0 0" fill="#d9d9d9"/><path d="m204.800781 128h85.332031c0-23.5625-19.101562-42.667969-42.667968-42.667969-23.5625 0-42.664063 19.105469-42.664063 42.667969zm0 0" fill="#c7463b"/><path d="m503.464844 366.933594c-4.710938 0-8.53125-3.820313-8.53125-8.535156v-42.664063h-486.398438c-4.714844 0-8.535156-3.820313-8.535156-8.535156 0-4.710938 3.820312-8.53125 8.535156-8.53125h494.929688c4.714844 0 8.535156 3.820312 8.535156 8.53125v51.199219c0 4.714843-3.820312 8.535156-8.535156 8.535156zm0 0" fill="#69b0bb"/><path d="m153.601562 307.199219c0 28.277343-22.925781 51.199219-51.203124 51.199219-28.273438 0-51.199219-22.921876-51.199219-51.199219 0-28.277344 22.925781-51.199219 51.199219-51.199219 28.277343 0 51.203124 22.921875 51.203124 51.199219zm0 0" fill="#a8a8a8"/><path d="m119.464844 307.199219c0 9.425781-7.640625 17.066406-17.066406 17.066406-9.425782 0-17.066407-7.640625-17.066407-17.066406s7.640625-17.066407 17.066407-17.066407c9.425781 0 17.066406 7.640626 17.066406 17.066407zm0 0" fill="#e4e4e2"/><path d="m503.464844 298.667969h-119.464844v-165.546875l45.824219-39.253906h5.375v8.53125c0 14.140624 11.460937 25.601562 25.601562 25.601562 14.136719 0 25.597657-11.460938 25.597657-25.601562v-17.066407c0-4.710937-3.820313-8.53125-8.53125-8.53125h-94.269532c-4.144531-43.503906-40.652344-76.7421872-84.351562-76.800781h-207.9375c-27.625-.0234375-52.15625 17.65625-60.871094 43.871094-20.171875 60.449218-30.4492188 123.765625-30.4375 187.492187v75.835938c0 4.714843 3.820312 8.535156 8.535156 8.535156h34.8125c4.683594 32.613281 34.921875 55.253906 67.53125 50.570313 26.214844-3.765626 46.808594-24.359376 50.570313-50.570313h333.484375v42.664063c0 4.714843 3.820312 8.535156 8.53125 8.535156 4.714844 0 8.535156-3.820313 8.535156-8.535156v-51.199219c0-4.710938-3.820312-8.53125-8.535156-8.53125zm-401.066406-51.203125c-29.664063.035156-54.8125 21.839844-59.050782 51.203125h-20.308594l33.1875-59.734375h100.359376l26.546874 59.734375h-21.683593c-4.238281-29.363281-29.382813-51.167969-59.050781-51.203125zm-85.332032 17.070312h5.410156l-5.410156 9.734375zm.664063-59.734375h178.535156v42.664063h-17.203125l-9.128906-20.554688c-1.378906-3.074218-4.433594-5.046875-7.800782-5.042968h-110.933593c-3.097657 0-5.953125 1.679687-7.457031 4.386718l-11.785157 21.210938h-14.890625v-16.101563c0-8.875.265625-17.722656.664063-26.5625zm349.203125-76.800781h-34.132813v-34.132812h34.132813zm0 119.464844h-68.265625v-42.664063h68.265625zm-85.332032 25.601562h-68.269531v-8.53125h68.269531zm-85.335937 13.125-9.625-21.65625h9.625zm17.066406-38.726562v-110.929688h68.269531v110.929688zm1.214844-128c4.625-18.179688 23.117187-29.167969 41.300781-24.539063 12.054688 3.066407 21.472656 12.484375 24.539063 24.539063zm-1.214844 170.667968h68.269531v8.535157h-68.269531zm85.335938-25.597656h68.265625v34.132813h-68.265625zm85.332031-153.867187v-16.800781h19.625zm76.800781.265625c-4.714843 0-8.535156-3.820313-8.535156-8.535156v-8.53125h17.066406v8.53125c0 4.714843-3.820312 8.535156-8.53125 8.535156zm-213.335937-85.332032c0 4.710938-3.820313 8.53125-8.53125 8.53125-4.714844 0-8.535156-3.820312-8.535156-8.53125v-8.535156h17.066406zm-34.132813 0c0 4.710938-3.820312 8.53125-8.53125 8.53125-4.714843 0-8.535156-3.820312-8.535156-8.53125v-8.535156h17.066406zm-34.132812 0c0 4.710938-3.820313 8.53125-8.53125 8.53125-4.714844 0-8.535157-3.820312-8.535157-8.53125v-8.535156h17.066407zm-34.132813 0c0 4.710938-3.820312 8.53125-8.53125 8.53125-4.714844 0-8.535156-3.820312-8.535156-8.53125v-8.535156h17.066406zm119.46875-8.535156h17.066406v8.535156c0 4.710938-3.820312 8.53125-8.535156 8.53125-4.710937 0-8.53125-3.820312-8.53125-8.53125zm-217.917968 32.195313c6.398437-19.242188 24.410156-32.21875 44.691406-32.195313h19.625v8.535156c-.0625 14.074219 11.300781 25.539063 25.375 25.601563 6.394531.027344 12.566406-2.351563 17.292968-6.660156 9.644532 8.875 24.484376 8.875 34.132813 0 9.644531 8.875 24.484375 8.875 34.132813 0 9.648437 8.875 24.484374 8.875 34.132812 0 10.402344 9.488281 26.523438 8.746093 36.007812-1.652344 4.3125-4.722656 6.6875-10.894531 6.660157-17.292969v-8.53125h.578125c34.277344.050782 63.117187 25.695313 67.175781 59.734375h-42.15625c-4.710937 0-8.53125 3.820313-8.53125 8.53125v51.199219c0 4.714844 3.820313 8.535156 8.53125 8.535156h42.667969v42.667969h-68.265625v-59.734375c0-28.277344-22.925781-51.199219-51.203125-51.199219-28.273438 0-51.199219 22.921875-51.199219 51.199219v59.734375h-177.492187c3.550781-47.128906 12.90625-93.636719 27.84375-138.472656zm55.78125 300.605469c-23.5625 0-42.664063-19.101563-42.664063-42.667969 0-23.5625 19.101563-42.667969 42.664063-42.667969 23.566406 0 42.667968 19.105469 42.667968 42.667969-.027344 23.554687-19.113281 42.640625-42.667968 42.667969zm0 0"/><path d="m59.734375 162.132812h85.332031c4.714844 0 8.535156-3.820312 8.535156-8.53125v-68.269531c0-4.710937-3.820312-8.53125-8.535156-8.53125h-85.332031c-4.714844 0-8.535156 3.820313-8.535156 8.53125v68.269531c0 4.710938 3.820312 8.53125 8.535156 8.53125zm8.53125-17.066406v-17.066406h25.601563v8.535156h17.066406v-8.535156h25.597656v17.066406zm68.269531-51.199218v17.066406h-25.601562v-8.535156h-17.066406v8.535156h-25.601563v-17.066406zm0 0"/><path d="m102.398438 281.601562c-14.136719 0-25.597657 11.460938-25.597657 25.597657 0 14.140625 11.460938 25.601562 25.597657 25.601562 14.140624 0 25.601562-11.460937 25.601562-25.601562 0-14.136719-11.460938-25.597657-25.601562-25.597657zm0 34.132813c-4.710938 0-8.53125-3.820313-8.53125-8.535156 0-4.710938 3.820312-8.53125 8.53125-8.53125 4.714843 0 8.535156 3.820312 8.535156 8.53125 0 4.714843-3.820313 8.535156-8.535156 8.535156zm0 0"/></svg>